<svg xmlns="http://www.w3.org/2000/svg" xmlns:xlink="http://www.w3.org/1999/xlink" width="18px" height="18px" preserveAspectRatio="xMidYMid meet" viewBox="0 0 432 488" style="-ms-transform: rotate(360deg); -webkit-transform: rotate(360deg); transform: rotate(360deg);"><path d="M364 304q2-12 2-20q1-59-24.5-90.5T270 135q10 55-18.5 86.5T179 241q24-39 29-69t-3.5-46.5t-17.5-36T172.5 52T178 2q-44 31-80 104.5T62 242q2 37 7 62q-68 28-68 67q0 37 63 64t152 27t152-27t63-64q0-39-67-67zM134 194q-11 52 12 89.5t56 37.5q63 0 88-100q36 27 39 72q3 49-37 83v1q-12 8-19 12q-1 1-2 1l-8 4l-2 1q-10 4-23 7q-3 0-4 1q-2 0-5 .5t-4 .5q-3 0-4 1h-26q-1 0-4-.5t-4-.5h-1q-8-2-10-2l-1-1l-9-3h-1q-30-12-47.5-39.5T101 293l-1 1q2-48 34-100z" fill="blue"/><rect x="0" y="0" width="432" height="488" fill="rgba(0, 0, 0, 0)" /></svg>