<svg xmlns="http://www.w3.org/2000/svg" xmlns:xlink="http://www.w3.org/1999/xlink" width="24" height="24" preserveAspectRatio="xMidYMid meet" viewBox="0 0 48 48" style="-ms-transform: rotate(360deg); -webkit-transform: rotate(360deg); transform: rotate(360deg);"><g fill="#37474F"><path d="M38.5 44.6l-4-4l2.1-2.1l4 4c.6.6.6 1.5 0 2.1c-.5.5-1.5.5-2.1 0z"/><path d="M9.5 44.6l4-4l-2.1-2.1l-4 4c-.6.6-.6 1.5 0 2.1c.5.5 1.5.5 2.1 0z"/></g><circle fill="#C62828" cx="24" cy="24" r="20"/><circle fill="#eee" cx="24" cy="24" r="16"/><path fill="#E53935" d="M15.096 33.48l-.566-.566l9.191-9.191l.566.565z"/><path d="M23 11h2v13h-2z" fill="#000"/><path d="M31.285 29.654L29.66 31.28l-6.504-6.504l1.626-1.627z" fill="#000"/><circle cx="24" cy="24" r="2" fill="#000"/><circle fill="#C62828" cx="24" cy="24" r="1"/><path fill="#37474F" d="M22 1h4v3h-4z"/><g fill="#37474F"><path d="M44.4 16.2c2.5-3.5 2.1-8.4-1-11.5c-3.1-3.1-8-3.5-11.5-1l12.5 12.5z"/><path d="M3.6 16.2c-2.5-3.5-2.1-8.4 1-11.5c3.1-3.1 8-3.5 11.5-1L3.6 16.2z"/></g><rect x="0" y="0" width="48" height="48" fill="rgba(0, 0, 0, 0)" /></svg>