<svg xmlns="http://www.w3.org/2000/svg" xmlns:xlink="http://www.w3.org/1999/xlink" width="20px" height="20px" preserveAspectRatio="xMidYMid meet" viewBox="0 0 24 24" style="-ms-transform: rotate(360deg); -webkit-transform: rotate(360deg); transform: rotate(360deg);"><path fill="red" d="M18 3H6a3 3 0 0 0-3 3v12a3 3 0 0 0 3 3h12a3 3 0 0 0 3-3V6a3 3 0 0 0-3-3zm-3.29 10.29a1 1 0 0 1 0 1.42a1 1 0 0 1-1.42 0L12 13.41l-1.29 1.3a1 1 0 0 1-1.42 0a1 1 0 0 1 0-1.42l1.3-1.29l-1.3-1.29a1 1 0 0 1 1.42-1.42l1.29 1.3l1.29-1.3a1 1 0 0 1 1.42 1.42L13.41 12z"/><rect x="0" y="0" width="24" height="24" fill="rgba(0, 0, 0, 0)" /></svg>