<svg id="Capa_1" enable-background="new 0 0 512 512" height="512" viewBox="0 0 512 512" width="512" xmlns="http://www.w3.org/2000/svg"><g><g><path d="m134.047 188.928c-8.086-6.056-17.673-10.169-28.116-11.67v36.228c.865.309 1.704.636 2.516 1.024z"/><path d="m393.737 247.172c-12.129 0-23.79 5.129-31.991 14.071l-68.025 74.205h176.419l-38.938-66.745c-7.734-13.277-22.096-21.531-37.465-21.531z"/><path d="m88.276 213.486v-36.228c-10.443 1.501-20.03 5.614-28.116 11.67l25.591 25.591c.821-.397 1.66-.724 2.525-1.033z"/><circle cx="97.103" cy="238.345" r="8.828"/><path d="m73.278 249.688c-.397-.812-.724-1.651-1.033-2.516h-36.228c1.501 10.443 5.614 20.03 11.67 28.107z"/><path d="m73.278 227.001-25.591-25.591c-6.056 8.077-10.169 17.664-11.67 28.107h36.228c.309-.865.636-1.703 1.033-2.516z"/><path d="m0 467.862c0 4.864 3.955 8.828 8.828 8.828h185.379v-335.449h-194.207zm97.103-308.965c43.811 0 79.448 35.646 79.448 79.448s-35.637 79.448-79.448 79.448-79.448-35.646-79.448-79.448 35.637-79.448 79.448-79.448zm-79.448 194.206h19.279c3.655-10.249 13.365-17.655 24.858-17.655s21.204 7.406 24.858 17.655h89.9v17.655h-89.9c-3.655 10.249-13.365 17.655-24.858 17.655s-21.204-7.406-24.858-17.655h-19.279zm0 70.621h63.417c3.655-10.249 13.365-17.655 24.858-17.655s21.204 7.406 24.858 17.655h45.762v17.655h-45.76c-3.655 10.249-13.365 17.655-24.858 17.655s-21.204-7.406-24.858-17.655h-63.419z"/><path d="m60.16 287.762c8.086 6.056 17.673 10.169 28.116 11.67v-36.228c-.865-.309-1.704-.636-2.516-1.024z"/><path d="m503.172 35.31h-494.344c-4.873 0-8.828 3.964-8.828 8.828v79.448h512v-79.448c0-4.864-3.955-8.828-8.828-8.828zm-441.379 61.793h-35.31v-35.31h35.31zm70.621 0h-35.31v-35.31h35.31zm70.62 0h-35.31v-35.31h35.31z"/><path d="m247.172 335.448h22.599l78.954-86.131c11.538-12.588 27.939-19.8 45.012-19.8 21.628 0 41.834 11.608 52.736 30.287l30.217 51.809v-135.061h-229.518zm44.138-132.414c9.754 0 17.655 7.901 17.655 17.655s-7.901 17.655-17.655 17.655-17.655-7.901-17.655-17.655 7.901-17.655 17.655-17.655z"/><path d="m105.931 263.203v36.228c10.443-1.501 20.03-5.614 28.116-11.67l-25.591-25.591c-.821.398-1.66.724-2.525 1.033z"/><path d="m121.962 229.517h36.228c-1.501-10.443-5.614-20.03-11.67-28.107l-25.591 25.591c.397.813.724 1.651 1.033 2.516z"/><path d="m211.862 476.69h291.31c4.873 0 8.828-3.964 8.828-8.828v-326.621h-300.138zm44.138-26.483v-26.483h44.138v26.483zm150.069-44.138h-35.31v-26.483h35.31zm-52.966 0h-35.31v-26.483h35.31zm-52.965 0h-44.138v-26.483h44.138zm17.655 44.138v-26.483h35.31v26.483zm52.966 0v-26.483h35.31v26.483zm97.103 0h-44.138v-26.483h44.138zm0-44.138h-44.138v-26.483h44.138zm-238.345-247.172h264.828v194.207h-264.828z"/><path d="m120.929 249.688 25.591 25.591c6.056-8.077 10.161-17.664 11.67-28.107h-36.228c-.309.866-.636 1.704-1.033 2.516z"/></g></g></svg>