<svg xmlns="http://www.w3.org/2000/svg" xmlns:xlink="http://www.w3.org/1999/xlink" width="24" height="24" preserveAspectRatio="xMidYMid meet" viewBox="0 0 24 24" style="-ms-transform: rotate(360deg); -webkit-transform: rotate(360deg); transform: rotate(360deg);"><path d="M9.5 15.584V8.416a.5.5 0 0 1 .77-.42l5.576 3.583a.5.5 0 0 1 0 .842l-5.576 3.584a.5.5 0 0 1-.77-.42z" fill="white"/><path fill-rule="evenodd" d="M12 2.5a9.5 9.5 0 1 0 0 19a9.5 9.5 0 0 0 0-19zM1 12C1 5.925 5.925 1 12 1s11 4.925 11 11s-4.925 11-11 11S1 18.075 1 12z" fill="white"/><rect x="0" y="0" width="24" height="24" fill="rgba(0, 0, 0, 0)" /></svg>